<svg xmlns="http://www.w3.org/2000/svg" viewBox="0 -0.5 11 18" shape-rendering="crispEdges">
  <path stroke="#000000" d="M3 0h5M3 1h1M7 1h1M3 2h1M7 2h1M3 3h1M7 3h1M3 4h5M3 5h1M7 5h1M3 6h1M7 6h1M3 7h1M7 7h1M0 8h4M7 8h4M0 9h1M10 9h1M0 10h1M10 10h1M0 11h1M10 11h1M0 12h1M10 12h1M0 13h2M9 13h2M1 14h2M8 14h2M2 15h2M7 15h2M3 16h2M6 16h2M4 17h3" />
  <path stroke="#7aebdf" d="M4 1h1M4 2h1M1 9h1M2 10h1M3 11h1M4 12h1M5 13h1" />
  <path stroke="#3cc9bb" d="M5 1h2M5 2h2M4 5h3M4 6h3M4 7h3M4 8h3M2 9h8M3 10h6M4 11h4M5 12h2" />
  <path stroke="#3b8780" d="M4 3h3M1 10h1M1 11h2M1 12h3M2 13h3M3 14h2M4 15h1" />
  <path stroke="#32635e" d="M9 10h1M8 11h2M7 12h3M6 13h3M5 14h3M5 15h2M5 16h1" />
</svg>
